<?xml version="1.0" encoding="UTF-8" standalone="no"?>
<!-- Svg Vector Icons : http://www.onlinewebfonts.com/icon -->

<svg
   version="1.1"
   x="0px"
   y="0px"
   viewBox="0 0 1000 1000"
   enable-background="new 0 0 1000 1000"
   xml:space="preserve"
   id="svg8"
   sodipodi:docname="brightness.svg"
   inkscape:version="1.1 (c4e8f9ed74, 2021-05-24)"
   xmlns:inkscape="http://www.inkscape.org/namespaces/inkscape"
   xmlns:sodipodi="http://sodipodi.sourceforge.net/DTD/sodipodi-0.dtd"
   xmlns="http://www.w3.org/2000/svg"
   xmlns:svg="http://www.w3.org/2000/svg"><defs
   id="defs12" /><sodipodi:namedview
   id="namedview10"
   pagecolor="#ffffff"
   bordercolor="#666666"
   borderopacity="1.0"
   inkscape:pageshadow="2"
   inkscape:pageopacity="0.0"
   inkscape:pagecheckerboard="0"
   showgrid="false"
   inkscape:zoom="0.682"
   inkscape:cx="499.26686"
   inkscape:cy="499.26686"
   inkscape:window-width="1890"
   inkscape:window-height="1005"
   inkscape:window-x="15"
   inkscape:window-y="60"
   inkscape:window-maximized="1"
   inkscape:current-layer="svg8" />
<metadata
   id="metadata2"> Svg Vector Icons : http://www.onlinewebfonts.com/icon </metadata>
<g
   id="g6"
   style="fill:#ffffff"><path
     d="M240,273c10,10,25.5,10.8,34.6,1.7c9.1-9.1,8.3-24.6-1.7-34.6l-84.8-84.8c-10-10-25.5-10.8-34.6-1.7c-9.1,9.1-8.3,24.6,1.7,34.6L240,273z M181.3,500c0-12.9-11.5-23.3-25.7-23.3H35.7C21.5,476.7,10,487.1,10,500c0,12.9,11.5,23.3,25.7,23.3h119.9C169.8,523.3,181.3,512.9,181.3,500z M760,273l84.8-84.8c10-10,10.8-25.5,1.7-34.6c-9.1-9.1-24.6-8.3-34.6,1.7L727.1,240c-10,10-10.8,25.5-1.7,34.6C734.4,283.8,749.9,283,760,273z M500,181.3c12.9,0,23.3-11.5,23.3-25.7V35.7c0-14.2-10.4-25.7-23.3-25.7c-12.9,0-23.3,11.5-23.3,25.7v119.9C476.7,169.8,487.1,181.3,500,181.3z M760,727c-10-10-25.5-10.8-34.6-1.7c-9.1,9.1-8.3,24.6,1.7,34.6l84.8,84.8c10,10,25.5,10.8,34.6,1.7c9.1-9.1,8.3-24.6-1.7-34.6L760,727z M964.3,476.7H844.4c-14.2,0-25.7,10.4-25.7,23.3c0,12.9,11.5,23.3,25.7,23.3h119.9c14.2,0,25.7-10.4,25.7-23.3C990,487.1,978.5,476.7,964.3,476.7z M500,274.3c-124.7,0-225.7,101-225.7,225.7c0,124.7,101.1,225.7,225.7,225.7c124.7,0,225.7-101.1,225.7-225.7C725.7,375.3,624.7,274.3,500,274.3z M500,694.2c-107.3,0-194.2-86.9-194.2-194.2c0-107.3,86.9-194.2,194.2-194.2c107.3,0,194.2,86.9,194.2,194.2C694.2,607.2,607.3,694.2,500,694.2z M500,818.7c-12.9,0-23.3,11.5-23.3,25.7v119.9c0,14.2,10.4,25.7,23.3,25.7c12.9,0,23.3-11.5,23.3-25.7V844.4C523.3,830.2,512.9,818.7,500,818.7z M240,727l-84.8,84.8c-10,10-10.8,25.5-1.7,34.6c9.1,9.1,24.6,8.3,34.6-1.7l84.8-84.8c10-10,10.8-25.5,1.7-34.6C265.6,716.2,250.1,717,240,727z"
     id="path4"
     style="fill:#ffffff" /></g>
</svg>
