<?xml version="1.0" encoding="UTF-8" standalone="no"?>
<!-- Svg Vector Icons : http://www.onlinewebfonts.com/icon -->

<svg
   version="1.1"
   x="0px"
   y="0px"
   viewBox="0 0 1000 1000"
   enable-background="new 0 0 1000 1000"
   xml:space="preserve"
   id="svg8"
   sodipodi:docname="muted.svg"
   inkscape:version="1.1 (c4e8f9ed74, 2021-05-24)"
   xmlns:inkscape="http://www.inkscape.org/namespaces/inkscape"
   xmlns:sodipodi="http://sodipodi.sourceforge.net/DTD/sodipodi-0.dtd"
   xmlns="http://www.w3.org/2000/svg"
   xmlns:svg="http://www.w3.org/2000/svg"><defs
   id="defs12" /><sodipodi:namedview
   id="namedview10"
   pagecolor="#ffffff"
   bordercolor="#666666"
   borderopacity="1.0"
   inkscape:pageshadow="2"
   inkscape:pageopacity="0.0"
   inkscape:pagecheckerboard="0"
   showgrid="false"
   inkscape:zoom="0.682"
   inkscape:cx="500"
   inkscape:cy="499.26686"
   inkscape:window-width="843"
   inkscape:window-height="1005"
   inkscape:window-x="1062"
   inkscape:window-y="60"
   inkscape:window-maximized="1"
   inkscape:current-layer="svg8" />
<metadata
   id="metadata2"> Svg Vector Icons : http://www.onlinewebfonts.com/icon </metadata>
<g
   id="g6"
   style="fill:#ffffff"><path
     d="M467.6,826.8l-228.8-143V316.2l228.8-143V826.8L467.6,826.8z M173.4,598.1c0,18.1-14.6,32.7-32.7,32.7h-32.7c-18.1,0-32.7-14.6-32.7-32.7V401.9c0-18,14.6-32.7,32.7-32.7h32.7c18.1,0,32.7,14.6,32.7,32.7V598.1L173.4,598.1z M467.6,107.8L173.4,303.9H75.4c-36.1,0-65.4,29.3-65.4,65.4v261.5c0,36.1,29.3,65.4,65.4,65.4h98.1l294.2,196.1c36.1,0,65.4-29.3,65.4-65.4V173.2C532.9,137.1,503.7,107.8,467.6,107.8L467.6,107.8z M841.6,500L978,363.6c14.7-14.7,16.1-37.2,3.1-50.3c-13-13-35.6-11.6-50.3,3.1L794.4,452.8L658,316.4c-14.7-14.7-37.2-16.1-50.3-3.1c-13,13-11.6,35.6,3.1,50.3L747.2,500L610.8,636.4c-14.7,14.7-16.1,37.2-3.1,50.3c13,13,35.6,11.6,50.3-3.1l136.4-136.4l136.4,136.4c14.7,14.7,37.2,16.1,50.3,3.1c13-13,11.6-35.6-3.1-50.3L841.6,500L841.6,500z"
     id="path4"
     style="fill:#ffffff" /></g>
</svg>
