<?xml version="1.0" encoding="UTF-8" standalone="no"?>
<!-- Svg Vector Icons : http://www.onlinewebfonts.com/icon -->

<svg
   version="1.1"
   x="0px"
   y="0px"
   viewBox="0 0 1000 1000"
   enable-background="new 0 0 1000 1000"
   xml:space="preserve"
   id="svg16"
   sodipodi:docname="volume.svg"
   inkscape:version="1.1 (c4e8f9ed74, 2021-05-24)"
   xmlns:inkscape="http://www.inkscape.org/namespaces/inkscape"
   xmlns:sodipodi="http://sodipodi.sourceforge.net/DTD/sodipodi-0.dtd"
   xmlns="http://www.w3.org/2000/svg"
   xmlns:svg="http://www.w3.org/2000/svg"><defs
   id="defs20" /><sodipodi:namedview
   id="namedview18"
   pagecolor="#ffffff"
   bordercolor="#666666"
   borderopacity="1.0"
   inkscape:pageshadow="2"
   inkscape:pageopacity="0.0"
   inkscape:pagecheckerboard="0"
   showgrid="false"
   inkscape:zoom="0.682"
   inkscape:cx="500"
   inkscape:cy="499.26686"
   inkscape:window-width="843"
   inkscape:window-height="1005"
   inkscape:window-x="1062"
   inkscape:window-y="60"
   inkscape:window-maximized="1"
   inkscape:current-layer="svg16" />
<metadata
   id="metadata2"> Svg Vector Icons : http://www.onlinewebfonts.com/icon </metadata>
<g
   id="g14"
   style="fill:#ffffff"><path
     d="M225,688.3H10V312.1h215V688.3z M21.9,676.3H213V324H21.9L21.9,676.3z"
     id="path4"
     style="fill:#ffffff" /><path
     d="M513.5,838.3L212.6,685.1l0-369.9l300.9-153.2V838.3z M224.6,677.8l277,141V181.5l-277,141V677.8z"
     id="path6"
     style="fill:#ffffff" /><path
     d="M600.6,692.6l-5.7-10.5c67.8-36.6,110-107.2,110-184.2c0-73.3-39.1-142.2-102.2-179.7l6.1-10.3c32.3,19.3,59.4,46.6,78.2,79.2c19.5,33.5,29.7,71.8,29.7,110.8C716.9,579.3,672.3,653.9,600.6,692.6z"
     id="path8"
     style="fill:#ffffff" /><path
     d="M669.1,812.1l-5.7-10.5c112.5-60.7,182.4-177.7,182.4-305.5c0-121.5-64.9-235.8-169.4-298.1l6.1-10.3c52.4,31.3,96.3,75.7,127,128.5c31.6,54.4,48.3,116.6,48.3,179.9C857.8,628.2,785.5,749.3,669.1,812.1z"
     id="path10"
     style="fill:#ffffff" /><path
     d="M719.4,947.6l-5.7-10.5c163.1-87.9,264.3-257.5,264.3-442.6c0-176.1-94.1-341.6-245.5-431.9l6.1-10.3c75.2,44.8,138.2,108.6,182.1,184.2c45.3,78,69.2,167.2,69.2,257.9C990,684,886.3,857.6,719.4,947.6z"
     id="path12"
     style="fill:#ffffff" /></g>
</svg>
